<?xml version="1.0" standalone="no"?>
<!DOCTYPE svg PUBLIC "-//W3C//DTD SVG 20010904//EN"
 "http://www.w3.org/TR/2001/REC-SVG-20010904/DTD/svg10.dtd">
<svg version="1.0" xmlns="http://www.w3.org/2000/svg"
 width="32.000000pt" height="32.000000pt" viewBox="0 0 32.000000 32.000000"
 preserveAspectRatio="xMidYMid meet">

<g transform="translate(0.000000,32.000000) scale(0.100000,-0.100000)"
fill="#000000" stroke="none">
<path d="M28 241 c10 -6 13 -30 10 -90 -2 -60 0 -81 10 -81 9 0 12 24 12 85
l0 85 34 0 c19 0 37 -6 39 -12 3 -8 6 -6 6 5 1 14 -8 17 -61 17 -38 0 -58 -4
-50 -9z"/>
<path d="M188 241 c10 -6 13 -30 10 -90 -3 -81 -3 -81 22 -80 14 0 19 3 13 6
-9 3 -13 30 -13 84 l0 79 39 0 c29 0 41 -5 44 -17 4 -14 5 -12 6 5 1 21 -3 22
-66 22 -41 0 -63 -4 -55 -9z"/>
<path d="M272 160 c0 -19 2 -27 5 -17 2 9 2 25 0 35 -3 9 -5 1 -5 -18z"/>
<path d="M137 90 c-3 -11 -1 -20 4 -20 5 0 9 9 9 20 0 11 -2 20 -4 20 -2 0 -6
-9 -9 -20z"/>
</g>
</svg>
